<mxfile host="app.diagrams.net" modified="2023-05-28T23:45:24.234Z" agent="Mozilla/5.0 (Windows NT 10.0; Win64; x64) AppleWebKit/537.36 (KHTML, like Gecko) Chrome/113.0.0.0 Safari/537.36" etag="ciBJkxJ4cjwK9jQgHKpW" version="21.3.2" type="github">
  <diagram name="PÃ¡gina-1" id="Aght_FqaJSaHrK-bhHqx">
    <mxGraphModel dx="880" dy="484" grid="1" gridSize="10" guides="1" tooltips="1" connect="1" arrows="1" fold="1" page="1" pageScale="1" pageWidth="827" pageHeight="1169" math="0" shadow="0">
      <root>
        <mxCell id="0" />
        <mxCell id="1" parent="0" />
        <mxCell id="JhKA2773tEeLSd2sevSE-1" style="edgeStyle=orthogonalEdgeStyle;rounded=0;orthogonalLoop=1;jettySize=auto;html=1;exitX=0.5;exitY=1;exitDx=0;exitDy=0;entryX=0.5;entryY=0;entryDx=0;entryDy=0;endArrow=none;endFill=0;" edge="1" parent="1" source="JhKA2773tEeLSd2sevSE-2" target="JhKA2773tEeLSd2sevSE-6">
          <mxGeometry relative="1" as="geometry" />
        </mxCell>
        <mxCell id="JhKA2773tEeLSd2sevSE-2" value="Start" style="ellipse;whiteSpace=wrap;html=1;aspect=fixed;fillColor=#b16fd3;strokeColor=#9673a6;gradientColor=#B16FD3;" vertex="1" parent="1">
          <mxGeometry x="80" width="40" height="40" as="geometry" />
        </mxCell>
        <mxCell id="JhKA2773tEeLSd2sevSE-3" style="edgeStyle=orthogonalEdgeStyle;rounded=0;orthogonalLoop=1;jettySize=auto;html=1;exitX=0.5;exitY=1;exitDx=0;exitDy=0;entryX=0.5;entryY=0;entryDx=0;entryDy=0;endArrow=none;endFill=0;" edge="1" parent="1" source="JhKA2773tEeLSd2sevSE-6" target="JhKA2773tEeLSd2sevSE-13">
          <mxGeometry relative="1" as="geometry" />
        </mxCell>
        <mxCell id="JhKA2773tEeLSd2sevSE-4" style="shape=connector;rounded=0;orthogonalLoop=1;jettySize=auto;html=1;exitX=1;exitY=1;exitDx=0;exitDy=0;entryX=0.5;entryY=0;entryDx=0;entryDy=0;labelBackgroundColor=default;strokeColor=default;fontFamily=Helvetica;fontSize=11;fontColor=default;endArrow=none;endFill=0;" edge="1" parent="1" source="JhKA2773tEeLSd2sevSE-6" target="JhKA2773tEeLSd2sevSE-14">
          <mxGeometry relative="1" as="geometry" />
        </mxCell>
        <mxCell id="JhKA2773tEeLSd2sevSE-5" style="edgeStyle=none;shape=connector;rounded=0;orthogonalLoop=1;jettySize=auto;html=1;exitX=0;exitY=1;exitDx=0;exitDy=0;entryX=0.5;entryY=0;entryDx=0;entryDy=0;labelBackgroundColor=default;strokeColor=default;fontFamily=Helvetica;fontSize=11;fontColor=default;endArrow=none;endFill=0;" edge="1" parent="1" source="JhKA2773tEeLSd2sevSE-6" target="JhKA2773tEeLSd2sevSE-9">
          <mxGeometry relative="1" as="geometry" />
        </mxCell>
        <mxCell id="JhKA2773tEeLSd2sevSE-6" value="A" style="ellipse;whiteSpace=wrap;html=1;aspect=fixed;fillColor=#e6d0de;gradientColor=#d5739d;strokeColor=#996185;" vertex="1" parent="1">
          <mxGeometry x="80" y="60" width="40" height="40" as="geometry" />
        </mxCell>
        <mxCell id="JhKA2773tEeLSd2sevSE-7" style="edgeStyle=orthogonalEdgeStyle;shape=connector;rounded=0;orthogonalLoop=1;jettySize=auto;html=1;exitX=1;exitY=0.5;exitDx=0;exitDy=0;entryX=0;entryY=0.5;entryDx=0;entryDy=0;labelBackgroundColor=default;strokeColor=default;fontFamily=Helvetica;fontSize=11;fontColor=default;endArrow=none;endFill=0;" edge="1" parent="1" source="JhKA2773tEeLSd2sevSE-9" target="JhKA2773tEeLSd2sevSE-13">
          <mxGeometry relative="1" as="geometry" />
        </mxCell>
        <mxCell id="JhKA2773tEeLSd2sevSE-8" style="edgeStyle=none;shape=connector;rounded=0;orthogonalLoop=1;jettySize=auto;html=1;exitX=0.5;exitY=1;exitDx=0;exitDy=0;entryX=0.5;entryY=0;entryDx=0;entryDy=0;labelBackgroundColor=default;strokeColor=default;fontFamily=Helvetica;fontSize=11;fontColor=default;endArrow=none;endFill=0;" edge="1" parent="1" source="JhKA2773tEeLSd2sevSE-9" target="JhKA2773tEeLSd2sevSE-16">
          <mxGeometry relative="1" as="geometry" />
        </mxCell>
        <mxCell id="JhKA2773tEeLSd2sevSE-9" value="C" style="ellipse;whiteSpace=wrap;html=1;aspect=fixed;fillColor=#e6d0de;gradientColor=#d5739d;strokeColor=#996185;" vertex="1" parent="1">
          <mxGeometry x="20" y="120" width="40" height="40" as="geometry" />
        </mxCell>
        <mxCell id="JhKA2773tEeLSd2sevSE-10" style="edgeStyle=none;shape=connector;rounded=0;orthogonalLoop=1;jettySize=auto;html=1;exitX=0.5;exitY=1;exitDx=0;exitDy=0;entryX=1;entryY=0;entryDx=0;entryDy=0;labelBackgroundColor=default;strokeColor=default;fontFamily=Helvetica;fontSize=11;fontColor=default;endArrow=none;endFill=0;" edge="1" parent="1" source="JhKA2773tEeLSd2sevSE-13" target="JhKA2773tEeLSd2sevSE-16">
          <mxGeometry relative="1" as="geometry" />
        </mxCell>
        <mxCell id="JhKA2773tEeLSd2sevSE-11" style="edgeStyle=none;shape=connector;rounded=0;orthogonalLoop=1;jettySize=auto;html=1;exitX=0.5;exitY=1;exitDx=0;exitDy=0;entryX=0.5;entryY=0;entryDx=0;entryDy=0;labelBackgroundColor=default;strokeColor=default;fontFamily=Helvetica;fontSize=11;fontColor=default;endArrow=none;endFill=0;" edge="1" parent="1" source="JhKA2773tEeLSd2sevSE-13" target="JhKA2773tEeLSd2sevSE-18">
          <mxGeometry relative="1" as="geometry" />
        </mxCell>
        <mxCell id="JhKA2773tEeLSd2sevSE-12" style="edgeStyle=none;shape=connector;rounded=0;orthogonalLoop=1;jettySize=auto;html=1;exitX=0.5;exitY=1;exitDx=0;exitDy=0;entryX=0.325;entryY=0.025;entryDx=0;entryDy=0;entryPerimeter=0;labelBackgroundColor=default;strokeColor=default;fontFamily=Helvetica;fontSize=11;fontColor=default;endArrow=none;endFill=0;" edge="1" parent="1" source="JhKA2773tEeLSd2sevSE-13" target="JhKA2773tEeLSd2sevSE-19">
          <mxGeometry relative="1" as="geometry" />
        </mxCell>
        <mxCell id="JhKA2773tEeLSd2sevSE-13" value="D" style="ellipse;whiteSpace=wrap;html=1;aspect=fixed;fillColor=#e6d0de;gradientColor=#d5739d;strokeColor=#996185;" vertex="1" parent="1">
          <mxGeometry x="80" y="120" width="40" height="40" as="geometry" />
        </mxCell>
        <mxCell id="JhKA2773tEeLSd2sevSE-14" value="B" style="ellipse;whiteSpace=wrap;html=1;aspect=fixed;fillColor=#e6d0de;gradientColor=#d5739d;strokeColor=#996185;" vertex="1" parent="1">
          <mxGeometry x="140" y="120" width="40" height="40" as="geometry" />
        </mxCell>
        <mxCell id="JhKA2773tEeLSd2sevSE-15" style="edgeStyle=none;shape=connector;rounded=0;orthogonalLoop=1;jettySize=auto;html=1;exitX=0.5;exitY=1;exitDx=0;exitDy=0;entryX=0;entryY=0;entryDx=0;entryDy=0;labelBackgroundColor=default;strokeColor=default;fontFamily=Helvetica;fontSize=11;fontColor=default;endArrow=none;endFill=0;" edge="1" parent="1" source="JhKA2773tEeLSd2sevSE-16" target="JhKA2773tEeLSd2sevSE-20">
          <mxGeometry relative="1" as="geometry" />
        </mxCell>
        <mxCell id="JhKA2773tEeLSd2sevSE-16" value="E" style="ellipse;whiteSpace=wrap;html=1;aspect=fixed;fillColor=#e6d0de;gradientColor=#d5739d;strokeColor=#996185;" vertex="1" parent="1">
          <mxGeometry x="40" y="200" width="40" height="40" as="geometry" />
        </mxCell>
        <mxCell id="JhKA2773tEeLSd2sevSE-17" style="edgeStyle=none;shape=connector;rounded=0;orthogonalLoop=1;jettySize=auto;html=1;exitX=0.5;exitY=1;exitDx=0;exitDy=0;entryX=1;entryY=0;entryDx=0;entryDy=0;labelBackgroundColor=default;strokeColor=default;fontFamily=Helvetica;fontSize=11;fontColor=default;endArrow=none;endFill=0;" edge="1" parent="1" source="JhKA2773tEeLSd2sevSE-18" target="JhKA2773tEeLSd2sevSE-20">
          <mxGeometry relative="1" as="geometry" />
        </mxCell>
        <mxCell id="JhKA2773tEeLSd2sevSE-18" value="G" style="ellipse;whiteSpace=wrap;html=1;aspect=fixed;fillColor=#e6d0de;gradientColor=#d5739d;strokeColor=#996185;" vertex="1" parent="1">
          <mxGeometry x="100" y="200" width="40" height="40" as="geometry" />
        </mxCell>
        <mxCell id="JhKA2773tEeLSd2sevSE-19" value="F" style="ellipse;whiteSpace=wrap;html=1;aspect=fixed;fillColor=#e6d0de;gradientColor=#d5739d;strokeColor=#996185;" vertex="1" parent="1">
          <mxGeometry x="160" y="200" width="40" height="40" as="geometry" />
        </mxCell>
        <mxCell id="JhKA2773tEeLSd2sevSE-20" value="Goal" style="ellipse;whiteSpace=wrap;html=1;aspect=fixed;fillColor=#B16FD3;strokeColor=#9673a6;" vertex="1" parent="1">
          <mxGeometry x="80" y="270" width="40" height="40" as="geometry" />
        </mxCell>
        <mxCell id="JhKA2773tEeLSd2sevSE-21" value="" style="html=1;shadow=0;dashed=0;align=center;verticalAlign=middle;shape=mxgraph.arrows2.arrow;dy=0.7;dx=14;notch=0;fontFamily=Helvetica;fontSize=11;fontColor=#ffffff;fillColor=#a20025;strokeColor=#6F0000;" vertex="1" parent="1">
          <mxGeometry x="55" y="10" width="30" height="20" as="geometry" />
        </mxCell>
      </root>
    </mxGraphModel>
  </diagram>
</mxfile>
